<svg viewBox="0 0 142.31 52.95" xmlns="http://www.w3.org/2000/svg"><g fill="#1d1d1b"><path d="m99.69 28.89c.08-.1 1.74 6.59 11 5.45-1.82-4.36-7.49-7.22-8.8-7.3.25-.19 1.89-1.4 2.15-1.55-.35 1.18 5 6.11 9.08 4.74-1.09-3.33-5.62-6.15-6.78-6.2.49-.25 1-.63 1.48-.88-.26.64 3.65 4.45 7.83 4.15 0-2-4.49-5.76-5.36-5.46.42-.22 1-.59 1.25-.69.59 1.36 4.45 4.27 7.11 3.8-2.17-4.59-4.94-4.86-5-4.86l1.3-.63c0 1.23 3.81 4 6.47 3.36a6 6 0 0 0 -4.68-4.22l1.4-.67c-.22.39 3 3.06 6 2.89-1.47-3.55-3.49-3.63-4.21-3.76.41-.18.86-.43 1.29-.65.17.45 1.83 2.79 5.84 2.2a5.25 5.25 0 0 0 -4.24-3c.57-.34 1-.48 1.41-.71.28.33 1.28 2.44 5.35 1.67a4.54 4.54 0 0 0 -3.46-2.68l1-.59a4.79 4.79 0 0 0 4.58 1.33c-.43-1.24-2-2-3.44-2 .62-.4 1.2-.82 1.19-.81.21.47 1.42 1.63 4.25.86-.91-1.77-3.23-1.55-3.25-1.54.55-.41.72-.56 1.15-.89a2.74 2.74 0 0 0 3.64.57 2.56 2.56 0 0 0 -2.64-1.32c.31-.3.58-.52.83-.81-.1.26 1.71 1.21 3.29 0a3.06 3.06 0 0 0 -2.49-.87c.18-.26.24-.23.48-.56a2.12 2.12 0 0 0 2.76-.26 2.58 2.58 0 0 0 -2.36-.29l.51-.8a1.67 1.67 0 0 0 2.3-.43 2.68 2.68 0 0 0 -2-.18s.16-.33.25-.49c2.83.35 1.86-2.94 1.22-4.79-10.67 16.18-24.85 4.73-42.2 14.9a14.39 14.39 0 0 0 -.89 6.58 7.17 7.17 0 0 0 .11.91 12.56 12.56 0 0 0 .66 2.8c.34 1 .72 1.66 1.15 2.68.25-.19.54-.41.74-.58-.78-1.1-3.38-7.76-.15-11.64 3.07-.06 3.42 8.71 2.91 9.64 0 0 1.43-.94 2-1.28-.66-.26-3-7.88.9-11 0 0 3.46 1.32 2 9.36a23.86 23.86 0 0 1 2.23-1.15c-.44-.77-2.81-6.52 1-9.53 2 .84 1.93 7.12 1.13 8.5.66-.31 1.36-.67 2-1-1.19-.55-1.1-6.46.92-8.07 2.24 2.1 1.69 5.63 1.13 7.18l1.69-.69c-1.33-2.52-.71-5.56.71-6.76q1.65 1.05.9 6.08c.48-.19.75-.33 1.22-.51-.29-.55-1.06-4 .91-5.82 1.76.84 1.14 4.65 1 5 0 0 1-.41 1-.44-.34-.74-.58-3.55 1-4.92.65.47 1.33 1.75.72 4.18.37-.19.78-.35 1.17-.52-.55-.62-.15-3.09.68-4.08 1 .44 1.42 2.58 1.06 3.29.25-.13.57-.28 1-.51-.32-.5-.42-2.81.55-3.44 1 .66.86 2.35.82 2.72.27-.17 1.08-.58 1.06-.6a2.09 2.09 0 0 1 .35-2.94c1 .21 1 2 .92 2.17.38-.25 1-.69 1.3-.92-.9-.2-.8-1.64-.31-2.29.6.13 1 .49 1.22 1.56.23-.22.78-.66 1-.86a1.19 1.19 0 0 1 -.39-2 1.61 1.61 0 0 1 1.11 1.27 7.45 7.45 0 0 0 .59-.69 1.49 1.49 0 0 1 -.41-1.77c.52-.05 1 .65 1.05.94l.51-.73c-.29-.23-.89-.92-.36-1.51.58 0 .78.46.91.88-5.86 11.48-29.58 13.45-42 27.27 0 0-1.29 1.34-1.29 2v4.67h.28a22.68 22.68 0 0 1 6.66-9.46"/><path d="m139.37 45.34h.76a.92.92 0 0 0 .75-.31c.19-.23.22-.6.22-1.4s0-1.12-.22-1.34a.9.9 0 0 0 -.75-.32h-.76zm.85 1h-1.92v-5.34h1.92a2 2 0 0 1 1.41.51 2.38 2.38 0 0 1 .54 1.92v.39a2.48 2.48 0 0 1 -.54 2 1.91 1.91 0 0 1 -1.41.51"/><path d="m118.21 46.3h-3.51v-3.54a3.36 3.36 0 0 1 .16-1.33.92.92 0 0 1 .88-.42h2.47v1h-1.91a.58.58 0 0 0 -.39.13.76.76 0 0 0 -.14.46v.59h2.08v1h-2.08v1.23h2.44z"/><path d="m101.47 41h-3.47v3.54a3.36 3.36 0 0 0 .16 1.33.92.92 0 0 0 .88.42h2.48v-1h-1.97a.53.53 0 0 1 -.38-.13.71.71 0 0 1 -.15-.46v-.59h2.08v-1h-2.1v-1.11h2.45z"/><path d="m125.12 45.34h2.39v1h-3.51v-4.65a.59.59 0 0 0 -.34-.63s0 0 0 0a0 0 0 0 1 0 0h.63c.42 0 .76.13.79 1.14z"/><path d="m96.86 46.3h-.96l-2.05-3.16v3.16h-1.07v-5.29h.95l2.05 3.16v-3.16h1.08z"/><path d="m136.12 43.38v-1.79a.54.54 0 0 0 -.3-.53h.62c.5 0 .75.35.76 1.11v4.13h-1l-2.05-3.16v3.16h-1.07v-5.3h.95l2.05 3.16z"/><path d="m129.6 44.47.64-1.82.61 1.82zm1.22-2.94a.65.65 0 0 0 -.64-.52h-.39l-1.93 5.29h1.14l.32-.93h1.84l.31.93h1.12z"/><path d="m120.52 44.47.63-1.82.61 1.82zm1.22-2.94a.65.65 0 0 0 -.64-.52h-.39l-1.93 5.29h1.12l.32-.93h1.83l.32.93h1.12z"/><path d="m104.11 44.25.94-3.24h.81l.94 3.24.81-3.24h1.12l-1.43 5.29h-.89l-1-3.12-1 3.12h-.89l-1.22-4.54c-.12-.44-.25-.58-.55-.7h.72a.85.85 0 0 1 .92.73z"/><path d="m113.53 42.4a2.59 2.59 0 0 0 .36-1.1v-.3h-3.42v1h2.14l-2.24 3.48v.85h3.52v-1h-2.24z"/><path d="m98.57 49.69a.72.72 0 0 0 -.62-.27h-.62v2.76h.67a.74.74 0 0 0 .62-.26c.16-.19.18-.49.18-1.14s0-.91-.18-1.09m.58 2.82a1.55 1.55 0 0 1 -1.12.41h-1.58v-4.23h1.5a1.54 1.54 0 0 1 1.12.4 2.11 2.11 0 0 1 .43 1.69 2.18 2.18 0 0 1 -.43 1.73"/><path d="m105.82 53a1.59 1.59 0 0 1 -1.14-.46c-.43-.43-.42-1-.42-1.69s0-1.26.42-1.68a1.56 1.56 0 0 1 1.14-.47 1.5 1.5 0 0 1 1.57 1.3h-.84a.71.71 0 0 0 -.72-.6.67.67 0 0 0 -.53.22c-.16.18-.21.38-.21 1.19s0 1 .21 1.19a.67.67 0 0 0 .53.22.71.71 0 0 0 .72-.59h.84a1.5 1.5 0 0 1 -1.57 1.37"/><path d="m113.11 49.42v3.5h-.83v-3.5h-1.11v-.73h3.05v.73z"/><path d="m118.66 49.61a.7.7 0 0 0 -.53-.22.73.73 0 0 0 -.54.22c-.16.18-.2.38-.2 1.19s0 1 .2 1.19a.69.69 0 0 0 .54.22.67.67 0 0 0 .53-.22c.16-.18.21-.37.21-1.19s-.05-1-.21-1.19m.61 2.88a1.54 1.54 0 0 1 -1.14.46 1.58 1.58 0 0 1 -1.15-.46c-.43-.43-.42-1-.42-1.69s0-1.26.42-1.68a1.55 1.55 0 0 1 1.15-.47 1.51 1.51 0 0 1 1.14.47c.43.42.43 1 .43 1.68a2.15 2.15 0 0 1 -.43 1.69"/><path d="m95.7 52.92h-2.81v-2.83a2.76 2.76 0 0 1 .11-1.09.73.73 0 0 1 .7-.34h2v.77h-1.53a.42.42 0 0 0 -.3.1.57.57 0 0 0 -.12.37v.47h1.66v.77h-1.66v1h2z"/><path d="m102.68 48.69v2.74a.71.71 0 1 1 -1.42 0v-1.82c0-.81-.29-.92-.63-.92h-.5a.48.48 0 0 1 .27.5v2.23a1.57 1.57 0 0 0 3.14 0v-2.73z"/><path d="m109 51.45.51-1.45.48 1.45zm1-2.35a.51.51 0 0 0 -.5-.41h-.32l-1.55 4.23h.9l.26-.75h1.46l.25.75h.9z"/><path d="m122.94 50.6v-1.43c0-.22-.07-.34-.25-.42s0 0 0 0h.5c.4 0 .6.28.61.88v3.34h-.8l-1.63-2.52v2.52h-.86v-4.26h.76l1.64 2.52z"/><path d="m114.87 49.8v-.57a.47.47 0 0 0 -.27-.5h.51c.33 0 .61.11.63.92v3.31h-.86z"/><path d="m142.17 1.21a1.07 1.07 0 0 1 -1 1.12 1.06 1.06 0 0 1 -1.07-1.06 1 1 0 1 1 2.09-.06m-1.1-1.21a1.23 1.23 0 0 0 -1.16 1.27 1.19 1.19 0 1 0 2.38-.06 1.21 1.21 0 0 0 -1.22-1.21"/><path d="m140.35.84v.15h.23v.76h.15v-.76h.24v-.15z"/><path d="m141.68.84-.26.52-.25-.52h-.16v.91h.16v-.59l.18.38h.15l.18-.38v.59h.16v-.91z"/><path d="m84.48 0h.35v52.95h-.35z"/><path d="m39.6 51.41a2 2 0 0 0 2 1.54 2.06 2.06 0 0 0 2.1-1.68l3.9-13.75 4 13.89a2 2 0 0 0 2.09 1.59 2 2 0 0 0 2.09-1.68l4-20.06a2.09 2.09 0 1 0 -4.11-.78l-2.39 12.29-3.57-12.55a2.11 2.11 0 0 0 -4 0l-3.61 12.55-2.33-12.34a2.13 2.13 0 0 0 -2.5-1.68 2.1 2.1 0 0 0 -1.65 2.46zm-8.6-18.48a2.11 2.11 0 1 0 0-4.22h-9.9a2.09 2.09 0 0 0 -2.1 2.09v20.06a2.09 2.09 0 0 0 2.09 2.14h9.91a2.11 2.11 0 1 0 0-4.22h-7.82v-6h5.45a2.11 2.11 0 0 0 2.12-2.13 2.08 2.08 0 0 0 -2.12-2.09h-5.45v-5.63zm-17.66-4.22a2.08 2.08 0 0 0 -2.09 2.09v11l-6-12a2.18 2.18 0 0 0 -2.4-1.13 2.11 2.11 0 0 0 -1.61 2.13v20.06a2.11 2.11 0 0 0 4.22 0v-11.08l6 12a2.19 2.19 0 0 0 1.88 1.22 3 3 0 0 0 .51-.07 2.09 2.09 0 0 0 1.62-2v-20.13a2.09 2.09 0 0 0 -2.13-2.09"/><path d="m71.83 9.57 3.94-6.31a2.12 2.12 0 1 0 -3.6-2.26l-6.07 9.77v-8.64a2.13 2.13 0 1 0 -4.25 0v20a2.13 2.13 0 0 0 4.25 0v-4.71l2.54-3.91 3.67 9.29a2.18 2.18 0 0 0 2 1.47 2.12 2.12 0 0 0 2.09-2.88zm-15.94-9.57a2.08 2.08 0 0 0 -2.1 2.09v11l-6-12a2.18 2.18 0 0 0 -2.39-1.02 2.13 2.13 0 0 0 -1.62 2.06v20.05a2.11 2.11 0 0 0 4.22 0v-11.07l6 12a2.17 2.17 0 0 0 1.89 1.16 2.24 2.24 0 0 0 .51-.07 2.08 2.08 0 0 0 1.61-2v-20a2.08 2.08 0 0 0 -2.12-2.2m-15.89 2.13a2.11 2.11 0 0 0 -4.22 0v20.05a2.11 2.11 0 0 0 4.22 0zm-10.24-2.13a2.08 2.08 0 0 0 -2.09 2.09v7.78h-5.79v-7.74a2.11 2.11 0 0 0 -4.22 0v20.05a2.11 2.11 0 0 0 4.22 0v-8.09h5.79v8.09a2.11 2.11 0 0 0 4.22 0v-20a2.09 2.09 0 0 0 -2.13-2.18m-16.66 0h-11a2.11 2.11 0 1 0 0 4.21h3.38v17.97a2.13 2.13 0 0 0 2.13 2.09 2.1 2.1 0 0 0 2.13-2.09v-17.93h3.36a2.11 2.11 0 1 0 0-4.25"/><path d="m64.82 30.28a.16.16 0 0 0 -.17.07l-.28.47-.28-.47a.16.16 0 0 0 -.17-.07.16.16 0 0 0 -.11.14v1.37a.15.15 0 0 0 .15.14.14.14 0 0 0 .14-.14v-.79l.15.23a.14.14 0 0 0 .24 0l.14-.23v.84a.15.15 0 0 0 .15.14.14.14 0 0 0 .14-.14v-1.42a.15.15 0 0 0 -.1-.14m-1.36 0h-.75a.15.15 0 0 0 -.15.14.15.15 0 0 0 .15.15h.23v1.22a.14.14 0 0 0 .14.14.15.15 0 0 0 .15-.14v-1.22h.23a.15.15 0 0 0 .14-.15.14.14 0 0 0 -.14-.14"/><path d="m63.77 33.28a2.17 2.17 0 1 1 2.17-2.17 2.17 2.17 0 0 1 -2.17 2.17zm0-4a1.81 1.81 0 1 0 1.81 1.81 1.82 1.82 0 0 0 -1.81-1.79z"/></g></svg>